<svg data-v-423bf9ae="" xmlns="http://www.w3.org/2000/svg" viewBox="0 0 286 91" class="iconLeft"><!----><!----><!----><g data-v-423bf9ae="" id="6fa32226-f62e-4196-928b-0561279a8e9d" fill="black" transform="matrix(6.1224488604322,0,0,6.1224488604322,83.21794607876629,-6.642457627793355)"><path d="M7.55 6.41C7.55 4.55 6.31 3.54 4.37 3.54C3.42 3.54 2.41 3.57 1.36 3.58L1.27 3.68L1.27 13.16C1.48 13.20 1.78 13.22 2.00 13.22C2.24 13.22 2.52 13.20 2.74 13.16L2.74 9.31L3.89 9.31C4.76 9.31 5.07 9.81 5.31 10.46L6.01 12.35C6.23 12.95 6.43 13.26 6.99 13.26C7.36 13.26 7.80 13.09 7.99 12.80C7.67 12.54 7.50 12.17 7.36 11.79L6.75 10.15C6.55 9.60 6.22 9.13 5.75 8.96C6.78 8.64 7.55 7.70 7.55 6.41ZM2.74 4.70C3.22 4.72 3.89 4.72 4.30 4.72C5.67 4.72 6.01 5.56 6.01 6.41C6.01 7.22 5.67 8.09 4.30 8.09C3.91 8.09 3.29 8.11 2.74 8.12ZM14.73 12.52C14.41 12.24 14.34 11.84 14.34 11.31L14.34 8.44C14.34 6.85 13.43 6.10 12.04 6.10C11.10 6.10 9.93 6.40 9.14 6.75C9.16 7.11 9.32 7.57 9.56 7.80C10.29 7.52 11.06 7.27 11.76 7.27C12.49 7.27 12.91 7.63 12.91 8.51L12.91 9.06C12.45 8.99 11.94 8.96 11.56 8.96C10.04 8.96 8.88 9.69 8.88 11.28C8.88 12.28 9.55 13.34 10.95 13.34C11.84 13.34 12.56 12.88 13.06 12.39C13.24 12.82 13.61 13.15 14.18 13.26C14.42 13.12 14.64 12.78 14.73 12.52ZM11.26 12.19C10.65 12.19 10.32 11.75 10.32 11.17C10.32 10.42 10.81 9.97 11.65 9.97C12.04 9.97 12.49 9.98 12.91 10.02L12.91 11.35C12.40 11.91 11.79 12.19 11.26 12.19ZM20.26 8.78L20.26 13.16C20.45 13.20 20.72 13.22 20.99 13.22C21.24 13.22 21.50 13.20 21.70 13.16L21.70 8.30L21.70 8.29C22.16 7.77 22.74 7.43 23.21 7.43C23.77 7.43 24.05 7.78 24.05 8.76L24.05 12.33C24.05 12.94 24.26 13.26 24.82 13.26C25.17 13.26 25.52 13.12 25.73 12.95C25.55 12.61 25.51 12.17 25.51 11.68L25.51 8.32C25.51 7.10 24.93 6.12 23.70 6.12C22.90 6.12 22.12 6.57 21.48 7.15C21.21 6.54 20.68 6.12 19.88 6.12C19.17 6.12 18.47 6.51 17.89 7.07C17.86 6.51 17.64 6.19 17.09 6.19L16.55 6.19L16.46 6.29L16.46 13.16C16.67 13.20 16.93 13.22 17.19 13.22C17.44 13.22 17.71 13.20 17.91 13.16L17.91 8.29C18.35 7.78 18.94 7.43 19.42 7.43C19.98 7.43 20.26 7.80 20.26 8.78ZM32.98 12.52C32.66 12.24 32.59 11.84 32.59 11.31L32.59 8.44C32.59 6.85 31.68 6.10 30.30 6.10C29.36 6.10 28.18 6.40 27.40 6.75C27.41 7.11 27.58 7.57 27.82 7.80C28.55 7.52 29.32 7.27 30.02 7.27C30.74 7.27 31.16 7.63 31.16 8.51L31.16 9.06C30.70 8.99 30.20 8.96 29.82 8.96C28.29 8.96 27.13 9.69 27.13 11.28C27.13 12.28 27.80 13.34 29.20 13.34C30.10 13.34 30.81 12.88 31.32 12.39C31.50 12.82 31.86 13.15 32.44 13.26C32.68 13.12 32.90 12.78 32.98 12.52ZM29.51 12.19C28.91 12.19 28.57 11.75 28.57 11.17C28.57 10.42 29.06 9.97 29.90 9.97C30.30 9.97 30.74 9.98 31.16 10.02L31.16 11.35C30.66 11.91 30.04 12.19 29.51 12.19Z"></path></g><!----><g data-v-423bf9ae="" id="45636f91-1b1c-49a1-a9c9-9471bbc9a5f3" transform="matrix(1.0003445095486112,0,0,1.0003445095486112,-14.501731702690535,-4.032723067524948)" stroke="none" fill="black"><path style="block-progression:tb;text-indent:0;text-transform:none" d="M27.5 4.969c-7.132 0-12.969 5.93-12.969 13.062 0 5.736 3.777 10.61 8.969 12.313v39.28c-5.192 1.717-8.969 6.67-8.969 12.407C14.531 89.164 20.368 95 27.5 95s13-5.836 13-12.97c0-5.735-3.808-10.69-9-12.405V69c0-5.93 1.815-8.24 5.156-10.344 3.341-2.103 8.602-3.393 14.282-4.781 5.679-1.388 11.839-2.905 16.937-6.72 4.632-3.464 7.961-9.08 8.531-16.78 5.24-1.673 9.094-6.573 9.094-12.344 0-7.132-5.868-13.062-13-13.062s-12.969 5.93-12.969 13.062c0 5.7 3.732 10.55 8.875 12.28-.422 5.484-2.394 8.263-5.344 10.47-3.339 2.499-8.429 3.982-14 5.344-5.57 1.362-11.559 2.572-16.656 5.78-.306.194-.61.383-.906.595V30.344c5.192-1.702 9-6.577 9-12.313 0-7.132-5.868-13.062-13-13.062zm0 8.031c2.809 0 5.031 2.222 5.031 5.031s-2.222 4.938-5.031 4.938-5-2.129-5-4.938S24.691 13 27.5 13zm45 0c2.809 0 5.031 2.222 5.031 5.031s-2.222 4.938-5.031 4.938-5-2.129-5-4.938S69.691 13 72.5 13zm-45 64c2.809 0 5.031 2.222 5.031 5.031s-2.222 4.938-5.031 4.938-5-2.129-5-4.938S24.691 77 27.5 77z" color="#000"></path></g><!----></svg>